<?xml version="1.0" encoding="utf-8"?>
<!-- Generator: Adobe Illustrator 22.1.0, SVG Export Plug-In . SVG Version: 6.00 Build 0)  -->
<svg version="1.1" id="Layer_1" xmlns="http://www.w3.org/2000/svg" xmlns:xlink="http://www.w3.org/1999/xlink" x="0px" y="0px"
	 viewBox="0 0 233 41" style="enable-background:new 0 0 233 41;" xml:space="preserve">
<style type="text/css">
	.st0{fill:#EE1F3F;stroke:#000000;stroke-width:0.5669;stroke-miterlimit:22.9256;}
	.st1{fill:#6D6E70;}
	.st2{fill:#BCBDC0;}
</style>
<g>
	<polygon class="st0" points="8,26.7 19.2,26.7 19.2,37.9 8,37.9 	"/>
	<path class="st1" d="M74.9,40.7h6.5l-8.8-22.2l8.8-17.9H75L66.9,18h-0.1V0.6h-6.3v40.1h6.3V28.3l1.9-3.7L74.9,40.7L74.9,40.7z
		 M90.5,6.3h10.9V0.6H84.2v40.1h17.2V35H90.5V23.2h8.6v-5.7h-8.6V6.3L90.5,6.3z M111.5,6.3h10.9V0.6h-17.2v40.1h17.2V35h-10.9V23.2
		h8.6v-5.7h-8.6L111.5,6.3L111.5,6.3z M135.8,0.6h-9.5v40.1h9.9c6.3,0,9.6-3.3,9.6-9.5v-3.3c0-4.2-1.3-7.2-4.7-8.5v-0.1
		c2.8-1.3,4.1-3.9,4.1-8V9.8C145.1,3.6,142.3,0.6,135.8,0.6L135.8,0.6L135.8,0.6z M135.4,22.6c2.9,0,4.1,1.1,4.1,4.9V31
		c0,3-1.1,4-3.3,4h-3.6V22.6H135.4L135.4,22.6z M135.6,6.3c2.2,0,3.2,1.3,3.2,4.1v2.2c0,3.2-1.4,4.2-3.8,4.2h-2.5V6.3H135.6
		L135.6,6.3z M155.3,9.8c0-2.9,1.3-4,3.3-4s3.3,1.1,3.3,4v21.6c0,2.9-1.3,4-3.3,4s-3.3-1.1-3.3-4V9.8L155.3,9.8z M149,31
		c0,6.4,3.4,10.1,9.6,10.1c6.2,0,9.6-3.7,9.6-10.1V10.2c0-6.4-3.4-10.1-9.6-10.1c-6.2,0-9.6,3.7-9.6,10.1V31L149,31z M178,9.8
		c0-2.9,1.3-4,3.3-4s3.3,1.1,3.3,4v21.6c0,2.9-1.3,4-3.3,4s-3.3-1.1-3.3-4V9.8L178,9.8z M171.7,31c0,6.4,3.4,10.1,9.6,10.1
		s9.6-3.7,9.6-10.1V10.2c0-6.4-3.4-10.1-9.6-10.1s-9.6,3.7-9.6,10.1V31L171.7,31z M193,6.3h6.6v34.4h6.3V6.3h6.6V0.6H193V6.3
		L193,6.3z M214.4,10.2c0,4.6,1.7,7.9,6.9,12.5c4.1,3.6,5.4,5.8,5.4,8.7s-1.3,3.9-3.3,3.9s-3.3-1-3.3-3.9v-2.9h-5.9V31
		c0,6.4,3.2,10.1,9.4,10.1S233,37.4,233,31c0-4.6-1.7-7.9-6.9-12.5c-4.1-3.6-5.4-5.8-5.4-8.7s1.1-4,3.1-4s3.1,1.1,3.1,4v1.7h5.9
		v-1.3c0-6.4-3.1-10.1-9.3-10.1C217.6,0.1,214.4,3.8,214.4,10.2L214.4,10.2z"/>
	<path class="st2" d="M74.9,40.7h6.5L73,19.5H60.5v21.2h6.3V28.3l1.9-3.7L74.9,40.7L74.9,40.7z M84.2,19.5v21.2h17.2V35H90.5V23.2
		h8.6v-3.7H84.2L84.2,19.5z M105.3,19.5v21.2h17.2V35h-10.9V23.2h8.6v-3.7H105.3L105.3,19.5z M126.3,19.5v21.2h9.9
		c6.3,0,9.6-3.3,9.6-9.5v-3.3c0-4.1-1.2-7-4.4-8.4L126.3,19.5L126.3,19.5z M135.4,22.6c2.9,0,4.1,1.1,4.1,4.9V31c0,3-1.1,4-3.3,4
		h-3.6V22.6H135.4L135.4,22.6z M161.8,19.5v11.9c0,2.9-1.3,4-3.3,4s-3.3-1.1-3.3-4V19.5H149V31c0,6.4,3.4,10.1,9.6,10.1
		c6.2,0,9.6-3.7,9.6-10.1V19.5H161.8L161.8,19.5z M184.5,19.5v11.9c0,2.9-1.3,4-3.3,4s-3.3-1.1-3.3-4V19.5h-6.3V31
		c0,6.4,3.4,10.1,9.6,10.1s9.6-3.7,9.6-10.1V19.5H184.5L184.5,19.5z M199.6,19.5v21.2h6.3V19.5H199.6L199.6,19.5z M218.1,19.5
		c0.9,1,2,2.1,3.3,3.2c4.1,3.6,5.4,5.8,5.4,8.7s-1.3,3.9-3.3,3.9s-3.3-1-3.3-3.9v-2.9h-5.9V31c0,6.4,3.2,10.1,9.4,10.1
		s9.4-3.7,9.4-10.1c0-4.2-1.4-7.4-5.8-11.5L218.1,19.5L218.1,19.5z"/>
	<path class="st1" d="M39.8,18.6L20,0.2L0.2,18.6c-0.3,0.3-0.3,0.7,0,1s0.7,0.3,1,0l3-2.8v23.7h31.7V16.9l3,2.8
		c0.1,0.1,0.3,0.2,0.5,0.2s0.4-0.1,0.5-0.2C40.1,19.3,40.1,18.9,39.8,18.6L39.8,18.6z M17.9,36.4H9.7v-8.3H18v8.3H17.9z M17.9,24
		H9.7v-8.3H18V24H17.9z M30.3,36.4H22v-8.3h8.3V36.4L30.3,36.4z M30.3,24H22v-8.3h8.3V24L30.3,24z"/>
</g>
</svg>
